<svg width="349" height="349" viewBox="0 0 349 349" fill="none" xmlns="http://www.w3.org/2000/svg">
<path d="M26.6446 189.837C36.8374 199.987 53.4157 199.987 63.6085 189.837C66.7966 186.662 68.9867 182.868 70.1818 178.837L130.735 178.837C131.659 186.23 134.93 193.377 140.616 199.039C146.303 204.701 153.48 207.959 160.903 208.885V255.932C157.986 256.678 155.217 258.116 152.938 260.386C146.143 267.153 146.143 278.158 152.938 284.925C159.733 291.692 170.785 291.692 177.58 284.925C184.376 278.158 184.376 267.153 177.58 260.386C175.301 258.116 172.532 256.678 169.615 255.932V208.885C177.038 207.959 184.215 204.701 189.902 199.039C195.588 193.377 198.859 186.23 199.786 178.84L277.808 178.837C278.113 185.073 280.62 191.22 285.392 195.972C295.584 206.121 312.163 206.121 322.355 195.972C332.548 185.822 332.548 169.313 322.355 159.163C312.163 149.013 295.584 149.013 285.392 159.163C282.203 162.338 280.013 166.132 278.818 170.163L199.783 170.163C199.026 164.132 196.691 158.274 192.763 153.24L224.059 122.076C234.258 129.299 248.523 128.388 257.666 119.284C267.858 109.134 267.858 92.6259 257.666 82.476C247.473 72.3261 230.895 72.3261 220.702 82.476C211.562 91.5769 210.648 105.782 217.899 115.941L186.603 147.105C181.548 143.194 175.664 140.869 169.608 140.115L169.608 93.0676C172.532 92.3223 175.301 90.8837 177.58 88.6139C184.376 81.8473 184.376 70.8415 177.58 64.0749C170.785 57.3083 159.733 57.3084 152.938 64.075C146.143 70.8416 146.143 81.8473 152.938 88.6139C155.217 90.8837 157.986 92.3223 160.903 93.0676V140.115C153.48 141.041 146.303 144.299 140.616 149.961C134.93 155.623 131.659 162.77 130.732 170.16H71.1891C70.8872 163.927 68.3799 157.78 63.6085 153.028C53.4157 142.879 36.8374 142.879 26.6446 153.028C16.4518 163.178 16.4518 179.687 26.6446 189.837ZM171.42 278.79C168.022 282.174 162.496 282.174 159.098 278.79C155.701 275.407 155.701 269.904 159.098 266.521C162.496 263.138 168.022 263.138 171.42 266.521C174.817 269.904 174.817 275.407 171.42 278.79ZM316.195 165.298C322.99 172.065 322.99 183.07 316.195 189.837C309.4 196.603 298.347 196.603 291.552 189.837C284.757 183.07 284.757 172.064 291.552 165.298C298.347 158.531 309.4 158.531 316.195 165.298ZM226.865 88.6139C233.661 81.8473 244.713 81.8473 251.508 88.6139C258.303 95.3805 258.303 106.386 251.508 113.153C244.713 119.919 233.661 119.919 226.865 113.153C220.07 106.386 220.07 95.3805 226.865 88.6139ZM183.741 156.096C193.934 166.246 193.934 182.754 183.741 192.904C173.548 203.054 156.97 203.054 146.777 192.904C136.584 182.754 136.584 166.246 146.777 156.096C156.97 145.946 173.548 145.946 183.741 156.096ZM57.4478 159.163C64.243 165.93 64.243 176.935 57.4478 183.702C50.6526 190.469 39.6004 190.469 32.8052 183.702C26.01 176.936 26.0101 165.93 32.8053 159.163C39.6004 152.397 50.6526 152.397 57.4478 159.163Z" fill="#FF6813"/>
</svg>
