<svg width="684" height="192" viewBox="0 0 684 192" fill="none" xmlns="http://www.w3.org/2000/svg">
<path d="M4.98988 121.721C11.643 128.355 22.4643 128.355 29.1174 121.721C31.1984 119.645 32.628 117.165 33.4081 114.53L72.933 114.531C73.5362 119.363 75.6715 124.035 79.3831 127.736C83.0947 131.437 87.7795 133.567 92.6251 134.172V164.926C90.721 165.413 88.9135 166.354 87.4256 167.837C82.9902 172.261 82.9902 179.455 87.4256 183.878C91.8611 188.301 99.0752 188.301 103.511 183.878C107.946 179.455 107.946 172.261 103.511 167.837C102.023 166.354 100.215 165.413 98.3111 164.926V134.172C103.157 133.567 107.842 131.437 111.553 127.736C115.265 124.035 117.4 119.363 118.005 114.532L168.932 114.53C169.131 118.607 170.768 122.625 173.883 125.731C180.536 132.366 191.357 132.366 198.01 125.731C204.663 119.096 204.663 108.305 198.01 101.67C191.357 95.0352 180.536 95.0352 173.883 101.67C171.802 103.745 170.372 106.225 169.592 108.86L118.003 108.86C117.509 104.918 115.985 101.088 113.421 97.7982L133.849 77.4266C140.506 82.1486 149.817 81.553 155.785 75.602C162.438 68.9672 162.438 58.1759 155.785 51.5411C149.132 44.9063 138.311 44.9063 131.657 51.5411C125.692 57.4902 125.095 66.7757 129.828 73.4165L109.4 93.788C106.1 91.2315 102.26 89.7117 98.3071 89.2184L98.3071 58.4646C100.215 57.9774 102.023 57.0371 103.511 55.5533C107.946 51.1301 107.946 43.9359 103.511 39.5127C99.0752 35.0895 91.861 35.0895 87.4256 39.5127C82.9902 43.9359 82.9902 51.1301 87.4256 55.5533C88.9135 57.0371 90.721 57.9774 92.6251 58.4646V89.2184C87.7795 89.824 83.0947 91.9534 79.3831 95.6547C75.6715 99.3561 73.5362 104.028 72.931 108.858H34.0656C33.8685 104.784 32.2319 100.766 29.1174 97.6598C22.4643 91.025 11.643 91.025 4.98987 97.6598C-1.6633 104.295 -1.66329 115.086 4.98988 121.721ZM99.4894 179.868C97.2717 182.079 93.6646 182.079 91.4469 179.868C89.2291 177.656 89.2291 174.059 91.4469 171.847C93.6646 169.636 97.2717 169.636 99.4894 171.847C101.707 174.059 101.707 177.656 99.4894 179.868ZM193.989 105.68C198.424 110.103 198.424 117.297 193.989 121.721C189.553 126.144 182.339 126.144 177.904 121.721C173.468 117.297 173.468 110.103 177.904 105.68C182.339 101.257 189.553 101.257 193.989 105.68ZM135.681 55.5533C140.116 51.1301 147.33 51.1301 151.766 55.5533C156.201 59.9765 156.201 67.1707 151.766 71.5939C147.33 76.0171 140.116 76.0171 135.681 71.5939C131.245 67.1707 131.245 59.9765 135.681 55.5533ZM107.532 99.6649C114.185 106.3 114.185 117.091 107.532 123.726C100.879 130.361 90.0575 130.361 83.4044 123.726C76.7512 117.091 76.7512 106.3 83.4044 99.6649C90.0575 93.0301 100.879 93.0301 107.532 99.6649ZM25.0962 101.67C29.5316 106.093 29.5316 113.287 25.0962 117.711C20.6607 122.134 13.4466 122.134 9.01114 117.711C4.57569 113.287 4.5757 106.093 9.01115 101.67C13.4466 97.2468 20.6607 97.2468 25.0962 101.67Z" fill="#FF6813"/>
<path d="M253.691 65.3555H268.586V162.33C268.586 167.615 267.732 172.1 266.023 175.783C264.368 179.467 261.859 182.243 258.496 184.111C255.186 186.033 250.995 186.994 245.924 186.994C244.589 186.994 243.041 186.861 241.279 186.594C239.464 186.327 237.943 186.007 236.715 185.633L236.795 173.701C237.809 173.915 238.957 174.075 240.238 174.182C241.52 174.342 242.641 174.422 243.602 174.422C245.79 174.422 247.632 174.021 249.127 173.221C250.622 172.42 251.743 171.139 252.49 169.377C253.291 167.615 253.691 165.266 253.691 162.33V65.3555ZM252.17 42.373C252.17 39.9707 252.917 37.9421 254.412 36.2871C255.907 34.6322 258.069 33.8047 260.898 33.8047C263.781 33.8047 265.97 34.6322 267.465 36.2871C268.96 37.9421 269.707 39.9707 269.707 42.373C269.707 44.6686 268.96 46.6439 267.465 48.2988C265.97 49.9004 263.781 50.7012 260.898 50.7012C258.069 50.7012 255.907 49.9004 254.412 48.2988C252.917 46.6439 252.17 44.6686 252.17 42.373ZM345.541 131.98V65.3555H360.436V152H346.262L345.541 131.98ZM348.344 113.723L354.51 113.562C354.51 119.328 353.896 124.667 352.668 129.578C351.493 134.436 349.572 138.654 346.902 142.23C344.233 145.807 340.736 148.61 336.412 150.639C332.088 152.614 326.829 153.602 320.637 153.602C316.419 153.602 312.549 152.988 309.025 151.76C305.555 150.532 302.566 148.637 300.057 146.074C297.548 143.512 295.599 140.175 294.211 136.064C292.876 131.954 292.209 127.016 292.209 121.25V65.3555H307.023V121.41C307.023 125.307 307.451 128.537 308.305 131.1C309.212 133.609 310.413 135.611 311.908 137.105C313.456 138.547 315.165 139.561 317.033 140.148C318.955 140.736 320.93 141.029 322.959 141.029C329.258 141.029 334.25 139.828 337.934 137.426C341.617 134.97 344.26 131.687 345.861 127.576C347.516 123.412 348.344 118.794 348.344 113.723ZM397.832 83.8535V152H383.018V65.3555H397.031L397.832 83.8535ZM394.309 105.395L388.143 105.154C388.196 99.2285 389.077 93.7565 390.785 88.7383C392.493 83.6667 394.896 79.2624 397.992 75.5254C401.089 71.7884 404.772 68.9056 409.043 66.877C413.367 64.7949 418.145 63.7539 423.377 63.7539C427.648 63.7539 431.492 64.3411 434.908 65.5156C438.325 66.6367 441.234 68.4518 443.637 70.9609C446.092 73.4701 447.961 76.7266 449.242 80.7305C450.523 84.681 451.164 89.5124 451.164 95.2246V152H436.27V95.0645C436.27 90.5267 435.602 86.8965 434.268 84.1738C432.933 81.3978 430.984 79.3958 428.422 78.168C425.859 76.8867 422.71 76.2461 418.973 76.2461C415.289 76.2461 411.926 77.0202 408.883 78.5684C405.893 80.1165 403.304 82.252 401.115 84.9746C398.98 87.6973 397.298 90.8203 396.07 94.3438C394.896 97.8138 394.309 101.497 394.309 105.395ZM489.762 65.3555V152H474.867V65.3555H489.762ZM473.746 42.373C473.746 39.9707 474.467 37.9421 475.908 36.2871C477.403 34.6322 479.592 33.8047 482.475 33.8047C485.304 33.8047 487.466 34.6322 488.961 36.2871C490.509 37.9421 491.283 39.9707 491.283 42.373C491.283 44.6686 490.509 46.6439 488.961 48.2988C487.466 49.9004 485.304 50.7012 482.475 50.7012C479.592 50.7012 477.403 49.9004 475.908 48.2988C474.467 46.6439 473.746 44.6686 473.746 42.373ZM528.359 82.0117V185.312H513.465V65.3555H527.078L528.359 82.0117ZM586.736 107.957V109.639C586.736 115.938 585.989 121.784 584.494 127.176C582.999 132.514 580.811 137.159 577.928 141.109C575.098 145.06 571.602 148.13 567.438 150.318C563.273 152.507 558.495 153.602 553.104 153.602C547.605 153.602 542.747 152.694 538.529 150.879C534.312 149.064 530.735 146.421 527.799 142.951C524.863 139.481 522.514 135.317 520.752 130.459C519.044 125.601 517.869 120.129 517.229 114.043V105.074C517.869 98.668 519.07 92.929 520.832 87.8574C522.594 82.7858 524.916 78.4616 527.799 74.8848C530.735 71.2546 534.285 68.5052 538.449 66.6367C542.613 64.7148 547.418 63.7539 552.863 63.7539C558.309 63.7539 563.14 64.8216 567.357 66.957C571.575 69.0391 575.125 72.0286 578.008 75.9258C580.891 79.8229 583.053 84.4941 584.494 89.9395C585.989 95.3314 586.736 101.337 586.736 107.957ZM571.842 109.639V107.957C571.842 103.633 571.388 99.5755 570.48 95.7852C569.573 91.9414 568.158 88.5781 566.236 85.6953C564.368 82.7591 561.965 80.4635 559.029 78.8086C556.093 77.1003 552.596 76.2461 548.539 76.2461C544.802 76.2461 541.546 76.8867 538.77 78.168C536.047 79.4492 533.725 81.1842 531.803 83.373C529.881 85.5085 528.306 87.9642 527.078 90.7402C525.904 93.4629 525.023 96.2923 524.436 99.2285V119.969C525.503 123.706 526.998 127.229 528.92 130.539C530.842 133.796 533.404 136.438 536.607 138.467C539.811 140.442 543.841 141.43 548.699 141.43C552.703 141.43 556.146 140.602 559.029 138.947C561.965 137.239 564.368 134.917 566.236 131.98C568.158 129.044 569.573 125.681 570.48 121.891C571.388 118.047 571.842 113.963 571.842 109.639ZM656.725 137.186V92.582C656.725 89.1654 656.031 86.2025 654.643 83.6934C653.308 81.1309 651.279 79.1556 648.557 77.7676C645.834 76.3796 642.471 75.6855 638.467 75.6855C634.73 75.6855 631.447 76.3262 628.617 77.6074C625.841 78.8887 623.652 80.5703 622.051 82.6523C620.503 84.7344 619.729 86.9766 619.729 89.3789H604.914C604.914 86.2826 605.715 83.2129 607.316 80.1699C608.918 77.127 611.214 74.3776 614.203 71.9219C617.246 69.4128 620.876 67.4375 625.094 65.9961C629.365 64.5013 634.116 63.7539 639.348 63.7539C645.647 63.7539 651.199 64.8216 656.004 66.957C660.862 69.0924 664.652 72.3223 667.375 76.6465C670.151 80.9173 671.539 86.2826 671.539 92.7422V133.102C671.539 135.984 671.779 139.054 672.26 142.311C672.794 145.567 673.568 148.37 674.582 150.719V152H659.127C658.38 150.292 657.792 148.023 657.365 145.193C656.938 142.311 656.725 139.641 656.725 137.186ZM659.287 99.4688L659.447 109.879H644.473C640.255 109.879 636.492 110.226 633.182 110.92C629.872 111.561 627.096 112.548 624.854 113.883C622.611 115.217 620.903 116.899 619.729 118.928C618.554 120.903 617.967 123.225 617.967 125.895C617.967 128.617 618.581 131.1 619.809 133.342C621.036 135.584 622.878 137.372 625.334 138.707C627.843 139.988 630.913 140.629 634.543 140.629C639.081 140.629 643.085 139.668 646.555 137.746C650.025 135.824 652.774 133.475 654.803 130.699C656.885 127.923 658.006 125.227 658.166 122.611L664.492 129.738C664.118 131.98 663.104 134.463 661.449 137.186C659.794 139.908 657.579 142.524 654.803 145.033C652.08 147.489 648.824 149.544 645.033 151.199C641.296 152.801 637.079 153.602 632.381 153.602C626.508 153.602 621.357 152.454 616.926 150.158C612.548 147.863 609.132 144.793 606.676 140.949C604.273 137.052 603.072 132.701 603.072 127.896C603.072 123.252 603.98 119.168 605.795 115.645C607.61 112.068 610.226 109.105 613.643 106.756C617.059 104.354 621.17 102.538 625.975 101.311C630.779 100.083 636.145 99.4688 642.07 99.4688H659.287Z" fill="black"/>
</svg>
